# xmcd
#
# Track frame offsets:
#	150
#	7694
#	21404
#	33224
#	44614
#	56160
#	69818
#	81121
#	90590
#	101830
#	111486
#	126023
#	138597
#	149236
#	160336
#	173522
#	186932
#	199103
#	211051
#	221892
#	237524
#
# Disc length: 3297 seconds
#
# Revision: 1
# Processed by: cddbd v1.5.2PL0 Copyright (c) Steve Scherf et al.
# Submitted via: audiograbber 1.83.01
#
DISCID=340cdf15
DTITLE=Hana a Petr Ulrychovy - Pulstoleti CD1
DYEAR=2014
DGENRE=Folk
TTITLE0=Osudu kola se netoci
TTITLE1=Pisen sklenene bane
TTITLE2=Zlatastredni
TTITLE3=Kouzelna lampa
TTITLE4=Tve mesto
TTITLE5=Sen
TTITLE6=Vracim se cestou domu
TTITLE7=Pojd, pujdeme spolu
TTITLE8=Jen o to mi nejde
TTITLE9=Sed a tise poslouchej
TTITLE10=Wine Or Love
TTITLE11=Dlouhy stin
TTITLE12=Kral umira
TTITLE13=Nonsens
TTITLE14=Krizova cesta
TTITLE15=Nechod do klastera
TTITLE16=Strange Brew
TTITLE17=You Don't Love Me Anymore
TTITLE18=Vune
TTITLE19=Brana milencu
TTITLE20=Nikdy nebudu tva
EXTD=
EXTT0=
EXTT1=
EXTT2=
EXTT3=
EXTT4=
EXTT5=
EXTT6=
EXTT7=
EXTT8=
EXTT9=
EXTT10=
EXTT11=
EXTT12=
EXTT13=
EXTT14=
EXTT15=
EXTT16=
EXTT17=
EXTT18=
EXTT19=
EXTT20=
PLAYORDER=
